<svg width="302" height="416" xmlns="http://www.w3.org/2000/svg" xmlns:xlink="http://www.w3.org/1999/xlink" xml:space="preserve" overflow="hidden"><defs><clipPath id="clip0"><rect x="0" y="0" width="302" height="416"/></clipPath></defs><g clip-path="url(#clip0)"><path d="M0 0 932.747 0 932.747 659.484 0 659.484Z" fill="#FFFFFF" transform="matrix(1.00059 0 0 1 -166.642 -71.4998)"/><path d="M0 0 261.219 0 261.219 74.7526 0 74.7526 0 0Z" stroke="#FF0000" stroke-width="0.830585" stroke-dasharray="4.98351 2.07646 2.07646 2.07646" fill="#FFECD1" transform="matrix(1.00059 0 0 1 13.7023 10.7281)"/><path d="M83.0585 49.8351 83.0585 0 0 0 0 49.8351 83.0585 49.8351Z" fill="#379E90" transform="matrix(1.00059 0 0 1 163.296 140.299)"/><text fill="#FFFFFF" font-family="Arial,Arial_MSFontService,sans-serif" font-weight="700" font-size="15" transform="matrix(0.831078 0 0 0.830585 167.867 169)">ANN training</text><path d="M83.0585 49.8351 83.0585 0 0 0 0 49.8351 83.0585 49.8351Z" transform="matrix(1.00059 0 0 1 163.296 354.59)"/><text fill="#FFFFFF" font-family="Arial,Arial_MSFontService,sans-serif" font-weight="700" font-size="15" transform="matrix(0.831078 0 0 0.830585 184.904 376)">O</text><text fill="#FFFFFF" font-family="Arial,Arial_MSFontService,sans-serif" font-weight="700" font-size="15" transform="matrix(0.831078 0 0 0.830585 194.877 376)">-</text><text fill="#FFFFFF" font-family="Arial,Arial_MSFontService,sans-serif" font-weight="700" font-size="15" transform="matrix(0.831078 0 0 0.830585 199.033 376)">ANN </text><text fill="#FFFFFF" font-family="Arial,Arial_MSFontService,sans-serif" font-weight="700" font-size="15" transform="matrix(0.831078 0 0 0.830585 186.982 391)">model</text><path d="M83.0585 49.8351 83.0585 0 0 0 0 49.8351 83.0585 49.8351Z" fill="#C00000" transform="matrix(1.00059 0 0 1 33.6481 22.3563)"/><text fill="#FFFFFF" font-family="Arial,Arial_MSFontService,sans-serif" font-weight="700" font-size="15" transform="matrix(0.831078 0 0 0.830585 51.1008 44)">Process </text><text fill="#FFFFFF" font-family="Arial,Arial_MSFontService,sans-serif" font-weight="700" font-size="15" transform="matrix(0.831078 0 0 0.830585 39.4657 59)">optimization</text><path d="M0 0 41.5293 0" stroke="#4155C6" stroke-width="0.830585" fill="none" transform="matrix(1.00059 0 0 1 116.756 47.2739)"/><path d="M41.5293-2.49176 46.5128 0 41.5293 2.49176 41.5293-2.49176" stroke="#4155C6" stroke-width="0.830585" stroke-linecap="round" fill="#4155C6" transform="matrix(1.00059 0 0 1 116.756 47.2739)"/><path d="M83.0585 49.8351 83.0585 0 0 0 0 49.8351 83.0585 49.8351Z" fill="#1A255E" transform="matrix(1.00059 0 0 1 163.296 22.3563)"/><text fill="#FFFFFF" font-family="Arial,Arial_MSFontService,sans-serif" font-weight="700" font-size="15" transform="matrix(0.831078 0 0 0.830585 180.749 44)">Process </text><text fill="#FFFFFF" font-family="Arial,Arial_MSFontService,sans-serif" font-weight="700" font-size="15" transform="matrix(0.831078 0 0 0.830585 174.931 59)">simulation</text><path d="M83.0585 49.8351 83.0585 0 0 0 0 49.8351 83.0585 49.8351Z" fill="#D7DCFF" transform="matrix(1.00059 0 0 1 163.296 247.445)"/><text font-family="Arial,Arial_MSFontService,sans-serif" font-weight="700" font-size="15" transform="matrix(0.831078 0 0 0.830585 186.567 269)">Model </text><text font-family="Arial,Arial_MSFontService,sans-serif" font-weight="700" font-size="15" transform="matrix(0.831078 0 0 0.830585 176.178 284)">validation</text><path d="M0 0 0 52.3269" stroke="#191919" stroke-width="0.830585" fill="none" transform="matrix(1.00059 0 0 1 204.85 190.134)"/><path d="M2.49176 52.3269 0 57.3104-2.49176 52.3269 2.49176 52.3269" stroke="#191919" stroke-width="0.830585" stroke-linecap="round" fill="#191919" transform="matrix(1.00059 0 0 1 204.85 190.134)"/><path d="M0 0 0 63.1245" stroke="#191919" stroke-width="0.830585" fill="none" transform="matrix(1.00059 0 0 1 204.85 72.1914)"/><path d="M2.49176 63.1245 0 68.108-2.49176 63.1245 2.49176 63.1245" stroke="#191919" stroke-width="0.830585" stroke-linecap="round" fill="#191919" transform="matrix(1.00059 0 0 1 204.85 72.1914)"/><text fill="#191919" font-family="Segoe UI,Segoe UI_MSFontService,sans-serif" font-weight="700" font-size="15" transform="matrix(0.831078 0 0 0.830585 220.026 119)">dataset</text><path d="M0 0 0 52.3269" stroke="#191919" stroke-width="0.830585" fill="none" transform="matrix(1.00059 0 0 1 204.85 297.28)"/><path d="M2.49176 52.3269 0 57.3104-2.49176 52.3269 2.49176 52.3269" stroke="#191919" stroke-width="0.830585" stroke-linecap="round" fill="#191919" transform="matrix(1.00059 0 0 1 204.85 297.28)"/></g></svg>